<svg width="176px" height="176px" viewBox="-102.4 -102.4 1228.80 1228.80" class="icon" version="1.1" xmlns="http://www.w3.org/2000/svg" fill="#000000" transform="matrix(-1, 0, 0, 1, 0, 0)rotate(-45)"><g id="SVGRepo_bgCarrier" stroke-width="0" transform="translate(0,0), scale(1)"><path transform="translate(-102.4, -102.4), scale(38.4)" d="M16,26.658613761984988C17.308639650733124,26.000355332092493,18.644417626198514,25.43032211333669,20.088083417562377,25.181985690633123C22.032874323210407,24.847446755580297,24.320323292700188,26.077931649903093,25.938824332499813,24.948957624548612C27.443053155378344,23.899693380992943,27.588888668322525,21.649195126666307,27.769231212059168,19.824055030317105C27.936343964085687,18.13280582192032,27.726989996875513,16.35504448082961,26.93665430692677,14.850511312705397C26.202173243439017,13.452306555625354,24.576553426942834,12.82154721822275,23.489116295271792,11.67615669093242C22.64241639133883,10.784333135181502,21.787277613664898,9.91124607429177,21.214275048841465,8.823166094410666C20.193982996261845,6.885723883509273,20.71366308600624,3.8668773645698145,18.808341920826017,2.7877900415713928C17.18871331234023,1.8705059997404323,15.40093535060556,4.267980757409672,13.552129575070403,4.483675094774378C11.479256214793423,4.725510690380129,9.046207389038901,2.8786038903402895,7.370295557901056,4.122230826885234C5.6866229958380154,5.371616690508876,7.0400200064673415,8.40956765244783,5.89488497733643,10.16580912147305C4.659014491179105,12.061207430772106,0.9756417978319969,12.146595832583461,0.6757464599680798,14.389356050657598C0.3803482712111519,16.59848444509705,3.3291563180024055,17.880787640694706,4.620338327152481,19.69747621397486C5.580403679729411,21.048284808943414,6.664413329904105,22.278092030838835,7.353678395991489,23.785182940549042C8.341605433050216,25.94530381459808,7.298306344798222,29.73242910580074,9.552405808225515,30.481533657936694C11.9496742454478,31.278217534647524,13.743236527770277,27.793787664927976,16,26.658613761984988" fill="#7e9aec" strokewidth="0"></path></g><g id="SVGRepo_tracerCarrier" stroke-linecap="round" stroke-linejoin="round" stroke="#0e0c0c" stroke-width="8.192"><path d="M512 301.2m-10 0a10 10 0 1 0 20 0 10 10 0 1 0-20 0Z" fill="#4070f4"></path><path d="M400.3 744.5c2.1-0.7 4.1-1.4 6.2-2-2 0.6-4.1 1.3-6.2 2z m0 0c2.1-0.7 4.1-1.4 6.2-2-2 0.6-4.1 1.3-6.2 2z" fill="#39393A"></path><path d="M511.8 256.6c24.4 0 44.2 19.8 44.2 44.2S536.2 345 511.8 345s-44.2-19.8-44.2-44.2 19.9-44.2 44.2-44.2m0-20c-35.5 0-64.2 28.7-64.2 64.2s28.7 64.2 64.2 64.2 64.2-28.7 64.2-64.2-28.7-64.2-64.2-64.2z" fill="#4070f4"></path><path d="M730.7 529.5c0.4-8.7 0.6-17.4 0.6-26.2 0-179.6-86.1-339.1-219.3-439.5-133.1 100.4-219.2 259.9-219.2 439.5 0 8.8 0.2 17.5 0.6 26.1-56 56-90.6 133.3-90.6 218.7 0 61.7 18 119.1 49.1 167.3 30.3-49.8 74.7-90.1 127.7-115.3 39-18.6 82.7-29 128.8-29 48.3 0 93.9 11.4 134.3 31.7 52.5 26.3 96.3 67.7 125.6 118.4 33.4-49.4 52.9-108.9 52.9-173.1 0-85.4-34.6-162.6-90.5-218.6zM351.1 383.4c9.2-37.9 22.9-74.7 40.6-109.5a502.1 502.1 0 0 1 63.6-95.9c17.4-20.6 36.4-39.9 56.8-57.5 20.4 17.6 39.4 36.9 56.8 57.5 24.8 29.5 46.2 61.8 63.6 95.9 17.7 34.8 31.4 71.6 40.6 109.5 8.7 35.8 13.5 72.7 14.2 109.9C637.4 459 577 438.9 512 438.9c-65 0-125.3 20.1-175.1 54.4 0.7-37.2 5.5-74.1 14.2-109.9z m-90.6 449.2c-9.1-27-13.7-55.5-13.7-84.4 0-35.8 7-70.6 20.8-103.2 8.4-19.8 19-38.4 31.9-55.5 9.7 61.5 29.5 119.7 57.8 172.6-36.4 17.8-69 41.6-96.8 70.5z m364.2-85.3c-0.7-0.3-1.5-0.5-2.2-0.8-0.4-0.2-0.9-0.3-1.3-0.5-0.6-0.2-1.3-0.5-1.9-0.7-0.8-0.3-1.5-0.5-2.3-0.8-0.8-0.3-1.5-0.5-2.3-0.7l-0.9-0.3c-1-0.3-2.1-0.7-3.1-1-1.2-0.4-2.4-0.7-3.5-1.1l-3-0.9c-0.2-0.1-0.4-0.1-0.7-0.2-1.1-0.3-2.3-0.7-3.4-1-1.2-0.3-2.4-0.6-3.5-0.9l-3.6-0.9-3.6-0.9c-1-0.3-2.1-0.5-3.1-0.7-1.2-0.3-2.4-0.5-3.6-0.8-1.3-0.3-2.5-0.6-3.8-0.8h-0.3c-0.9-0.2-1.9-0.4-2.8-0.6-0.4-0.1-0.7-0.1-1.1-0.2-1.1-0.2-2.2-0.4-3.4-0.6-1.2-0.2-2.4-0.4-3.6-0.7l-5.4-0.9c-0.9-0.1-1.9-0.3-2.8-0.4-0.8-0.1-1.6-0.3-2.5-0.4-2.6-0.4-5.1-0.7-7.7-1-1.2-0.1-2.3-0.3-3.5-0.4h-0.4c-0.9-0.1-1.8-0.2-2.8-0.3-1.1-0.1-2.1-0.2-3.2-0.3-1.7-0.2-3.4-0.3-5.1-0.4-0.8-0.1-1.5-0.1-2.3-0.2-0.9-0.1-1.9-0.1-2.8-0.2-0.4 0-0.8 0-1.2-0.1-1.1-0.1-2.1-0.1-3.2-0.2-0.5 0-1-0.1-1.5-0.1-1.3-0.1-2.6-0.1-3.9-0.1-0.8 0-1.5-0.1-2.3-0.1-1.2 0-2.4 0-3.5-0.1h-13.9c-2.3 0-4.6 0.1-6.9 0.2-0.9 0-1.9 0.1-2.8 0.1-0.8 0-1.5 0.1-2.3 0.1-1.4 0.1-2.8 0.2-4.1 0.3-1.4 0.1-2.7 0.2-4.1 0.3-1.4 0.1-2.7 0.2-4.1 0.4-0.6 0-1.2 0.1-1.8 0.2l-7.8 0.9c-1.1 0.1-2.1 0.3-3.2 0.4-1 0.1-2.1 0.3-3.1 0.4-3.2 0.5-6.4 0.9-9.5 1.5-0.7 0.1-1.4 0.2-2.1 0.4-0.9 0.1-1.7 0.3-2.6 0.5-1.1 0.2-2.3 0.4-3.4 0.6-0.9 0.2-1.7 0.3-2.6 0.5-0.4 0.1-0.8 0.1-1.1 0.2-0.7 0.1-1.4 0.3-2.1 0.4-1.2 0.3-2.4 0.5-3.6 0.8-1.2 0.3-2.4 0.5-3.6 0.8-0.2 0-0.4 0.1-0.6 0.1-0.5 0.1-1 0.2-1.5 0.4-1.1 0.3-2.3 0.6-3.5 0.9-1.3 0.3-2.5 0.6-3.8 1-0.4 0.1-0.9 0.2-1.4 0.4-1.3 0.4-2.7 0.7-4 1.1-1.5 0.4-3 0.9-4.6 1.3-1 0.3-2.1 0.6-3.1 1-2.1 0.6-4.1 1.3-6.2 2-0.7 0.2-1.4 0.5-2.1 0.7-15-27.5-27.4-56.4-37-86.2-11.7-36.1-19.2-73.6-22.5-111.6-0.6-6.7-1-13.3-1.3-20-0.1-1.2-0.1-2.4-0.1-3.6-0.1-1.2-0.1-2.4-0.1-3.6 0-1.2-0.1-2.4-0.1-3.6 0-1.2-0.1-2.4-0.1-3.7 18.8-14 39.2-25.8 61-35 36.1-15.3 74.5-23 114.1-23 39.6 0 78 7.8 114.1 23 21.8 9.2 42.2 20.9 61 35v0.1c0 1 0 1.9-0.1 2.9 0 1.4-0.1 2.8-0.1 4.3 0 0.7 0 1.3-0.1 2-0.1 1.8-0.1 3.5-0.2 5.3-0.3 6.7-0.8 13.3-1.3 20-3.3 38.5-11 76.5-23 113-9.7 30.3-22.3 59.4-37.6 87.1z m136.8 90.9a342.27 342.27 0 0 0-96.3-73.2c29.1-53.7 49.5-112.8 59.4-175.5 12.8 17.1 23.4 35.6 31.8 55.5 13.8 32.7 20.8 67.4 20.8 103.2 0 31-5.3 61.3-15.7 90z" fill="#39393A"></path><path d="M512 819.3c8.7 0 24.7 22.9 24.7 60.4s-16 60.4-24.7 60.4-24.7-22.9-24.7-60.4 16-60.4 24.7-60.4m0-20c-24.7 0-44.7 36-44.7 80.4 0 44.4 20 80.4 44.7 80.4s44.7-36 44.7-80.4c0-44.4-20-80.4-44.7-80.4z" fill="#4070f4"></path></g><g id="SVGRepo_iconCarrier"><path d="M512 301.2m-10 0a10 10 0 1 0 20 0 10 10 0 1 0-20 0Z" fill="#4070f4"></path><path d="M400.3 744.5c2.1-0.7 4.1-1.4 6.2-2-2 0.6-4.1 1.3-6.2 2z m0 0c2.1-0.7 4.1-1.4 6.2-2-2 0.6-4.1 1.3-6.2 2z" fill="#39393A"></path><path d="M511.8 256.6c24.4 0 44.2 19.8 44.2 44.2S536.2 345 511.8 345s-44.2-19.8-44.2-44.2 19.9-44.2 44.2-44.2m0-20c-35.5 0-64.2 28.7-64.2 64.2s28.7 64.2 64.2 64.2 64.2-28.7 64.2-64.2-28.7-64.2-64.2-64.2z" fill="#4070f4"></path><path d="M730.7 529.5c0.4-8.7 0.6-17.4 0.6-26.2 0-179.6-86.1-339.1-219.3-439.5-133.1 100.4-219.2 259.9-219.2 439.5 0 8.8 0.2 17.5 0.6 26.1-56 56-90.6 133.3-90.6 218.7 0 61.7 18 119.1 49.1 167.3 30.3-49.8 74.7-90.1 127.7-115.3 39-18.6 82.7-29 128.8-29 48.3 0 93.9 11.4 134.3 31.7 52.5 26.3 96.3 67.7 125.6 118.4 33.4-49.4 52.9-108.9 52.9-173.1 0-85.4-34.6-162.6-90.5-218.6zM351.1 383.4c9.2-37.9 22.9-74.7 40.6-109.5a502.1 502.1 0 0 1 63.6-95.9c17.4-20.6 36.4-39.9 56.8-57.5 20.4 17.6 39.4 36.9 56.8 57.5 24.8 29.5 46.2 61.8 63.6 95.9 17.7 34.8 31.4 71.6 40.6 109.5 8.7 35.8 13.5 72.7 14.2 109.9C637.4 459 577 438.9 512 438.9c-65 0-125.3 20.1-175.1 54.4 0.7-37.2 5.5-74.1 14.2-109.9z m-90.6 449.2c-9.1-27-13.7-55.5-13.7-84.4 0-35.8 7-70.6 20.8-103.2 8.4-19.8 19-38.4 31.9-55.5 9.7 61.5 29.5 119.7 57.8 172.6-36.4 17.8-69 41.6-96.8 70.5z m364.2-85.3c-0.7-0.3-1.5-0.5-2.2-0.8-0.4-0.2-0.9-0.3-1.3-0.5-0.6-0.2-1.3-0.5-1.9-0.7-0.8-0.3-1.5-0.5-2.3-0.8-0.8-0.3-1.5-0.5-2.3-0.7l-0.9-0.3c-1-0.3-2.1-0.7-3.1-1-1.2-0.4-2.4-0.7-3.5-1.1l-3-0.9c-0.2-0.1-0.4-0.1-0.7-0.2-1.1-0.3-2.3-0.7-3.4-1-1.2-0.3-2.4-0.6-3.5-0.9l-3.6-0.9-3.6-0.9c-1-0.3-2.1-0.5-3.1-0.7-1.2-0.3-2.4-0.5-3.6-0.8-1.3-0.3-2.5-0.6-3.8-0.8h-0.3c-0.9-0.2-1.9-0.4-2.8-0.6-0.4-0.1-0.7-0.1-1.1-0.2-1.1-0.2-2.2-0.4-3.4-0.6-1.2-0.2-2.4-0.4-3.6-0.7l-5.4-0.9c-0.9-0.1-1.9-0.3-2.8-0.4-0.8-0.1-1.6-0.3-2.5-0.4-2.6-0.4-5.1-0.7-7.7-1-1.2-0.1-2.3-0.3-3.5-0.4h-0.4c-0.9-0.1-1.8-0.2-2.8-0.3-1.1-0.1-2.1-0.2-3.2-0.3-1.7-0.2-3.4-0.3-5.1-0.4-0.8-0.1-1.5-0.1-2.3-0.2-0.9-0.1-1.9-0.1-2.8-0.2-0.4 0-0.8 0-1.2-0.1-1.1-0.1-2.1-0.1-3.2-0.2-0.5 0-1-0.1-1.5-0.1-1.3-0.1-2.6-0.1-3.9-0.1-0.8 0-1.5-0.1-2.3-0.1-1.2 0-2.4 0-3.5-0.1h-13.9c-2.3 0-4.6 0.1-6.9 0.2-0.9 0-1.9 0.1-2.8 0.1-0.8 0-1.5 0.1-2.3 0.1-1.4 0.1-2.8 0.2-4.1 0.3-1.4 0.1-2.7 0.2-4.1 0.3-1.4 0.1-2.7 0.2-4.1 0.4-0.6 0-1.2 0.1-1.8 0.2l-7.8 0.9c-1.1 0.1-2.1 0.3-3.2 0.4-1 0.1-2.1 0.3-3.1 0.4-3.2 0.5-6.4 0.9-9.5 1.5-0.7 0.1-1.4 0.2-2.1 0.4-0.9 0.1-1.7 0.3-2.6 0.5-1.1 0.2-2.3 0.4-3.4 0.6-0.9 0.2-1.7 0.3-2.6 0.5-0.4 0.1-0.8 0.1-1.1 0.2-0.7 0.1-1.4 0.3-2.1 0.4-1.2 0.3-2.4 0.5-3.6 0.8-1.2 0.3-2.4 0.5-3.6 0.8-0.2 0-0.4 0.1-0.6 0.1-0.5 0.1-1 0.2-1.5 0.4-1.1 0.3-2.3 0.6-3.5 0.9-1.3 0.3-2.5 0.6-3.8 1-0.4 0.1-0.9 0.2-1.4 0.4-1.3 0.4-2.7 0.7-4 1.1-1.5 0.4-3 0.9-4.6 1.3-1 0.3-2.1 0.6-3.1 1-2.1 0.6-4.1 1.3-6.2 2-0.7 0.2-1.4 0.5-2.1 0.7-15-27.5-27.4-56.4-37-86.2-11.7-36.1-19.2-73.6-22.5-111.6-0.6-6.7-1-13.3-1.3-20-0.1-1.2-0.1-2.4-0.1-3.6-0.1-1.2-0.1-2.4-0.1-3.6 0-1.2-0.1-2.4-0.1-3.6 0-1.2-0.1-2.4-0.1-3.7 18.8-14 39.2-25.8 61-35 36.1-15.3 74.5-23 114.1-23 39.6 0 78 7.8 114.1 23 21.8 9.2 42.2 20.9 61 35v0.1c0 1 0 1.9-0.1 2.9 0 1.4-0.1 2.8-0.1 4.3 0 0.7 0 1.3-0.1 2-0.1 1.8-0.1 3.5-0.2 5.3-0.3 6.7-0.8 13.3-1.3 20-3.3 38.5-11 76.5-23 113-9.7 30.3-22.3 59.4-37.6 87.1z m136.8 90.9a342.27 342.27 0 0 0-96.3-73.2c29.1-53.7 49.5-112.8 59.4-175.5 12.8 17.1 23.4 35.6 31.8 55.5 13.8 32.7 20.8 67.4 20.8 103.2 0 31-5.3 61.3-15.7 90z" fill="#39393A"></path><path d="M512 819.3c8.7 0 24.7 22.9 24.7 60.4s-16 60.4-24.7 60.4-24.7-22.9-24.7-60.4 16-60.4 24.7-60.4m0-20c-24.7 0-44.7 36-44.7 80.4 0 44.4 20 80.4 44.7 80.4s44.7-36 44.7-80.4c0-44.4-20-80.4-44.7-80.4z" fill="#4070f4"></path></g></svg>